<?xml version="1.0" encoding="UTF-8" standalone="no"?>
<svg
   width="210mm"
   height="297mm"
   viewBox="0 0 210 297"
   version="1.1"
   id="svg1458"
   inkscape:version="1.3.2 (1:1.3.2+202311252150+091e20ef0f)"
   sodipodi:docname="voucher_A4.svg"
   xmlns:inkscape="http://www.inkscape.org/namespaces/inkscape"
   xmlns:sodipodi="http://sodipodi.sourceforge.net/DTD/sodipodi-0.dtd"
   xmlns:xlink="http://www.w3.org/1999/xlink"
   xmlns="http://www.w3.org/2000/svg"
   xmlns:svg="http://www.w3.org/2000/svg"
   xmlns:rdf="http://www.w3.org/1999/02/22-rdf-syntax-ns#"
   xmlns:cc="http://creativecommons.org/ns#"
   xmlns:dc="http://purl.org/dc/elements/1.1/">
  <defs
     id="defs1452">
    <marker
       style="overflow:visible"
       id="Arrow1Lstart"
       refX="0"
       refY="0"
       orient="auto"
       inkscape:stockid="Arrow1Lstart"
       inkscape:isstock="true">
      <path
         transform="matrix(0.8,0,0,0.8,10,0)"
         style="fill-rule:evenodd;stroke:#000000;stroke-width:1pt"
         d="M 0,0 5,-5 -12.5,0 5,5 Z"
         id="path2142" />
    </marker>
    <rect
       x="12.561668"
       y="118.13313"
       width="90.069832"
       height="15.501633"
       id="rect2099" />
    <rect
       x="12.294398"
       y="122.14217"
       width="95.415222"
       height="15.234363"
       id="rect2093" />
    <linearGradient
       inkscape:collect="always"
       xlink:href="#linearGradient12000"
       id="linearGradient11738"
       x1="87.661674"
       y1="39.697964"
       x2="87.897057"
       y2="73.493118"
       gradientUnits="userSpaceOnUse"
       spreadMethod="reflect"
       gradientTransform="matrix(1.5265196,0,0,1.4506167,-74.698578,-42.962117)" />
    <linearGradient
       inkscape:collect="always"
       id="linearGradient12000">
      <stop
         style="stop-color:#806600;stop-opacity:1"
         offset="0"
         id="stop11996" />
      <stop
         style="stop-color:#eded00;stop-opacity:0;"
         offset="1"
         id="stop11998" />
    </linearGradient>
  </defs>
  <sodipodi:namedview
     id="base"
     pagecolor="#ffffff"
     bordercolor="#666666"
     borderopacity="1.0"
     inkscape:pageopacity="0.0"
     inkscape:pageshadow="2"
     inkscape:zoom="1"
     inkscape:cx="338"
     inkscape:cy="390.5"
     inkscape:document-units="mm"
     inkscape:current-layer="layer4"
     inkscape:document-rotation="0"
     showgrid="false"
     inkscape:window-width="1920"
     inkscape:window-height="1176"
     inkscape:window-x="1920"
     inkscape:window-y="0"
     inkscape:window-maximized="1"
     inkscape:showpageshadow="2"
     inkscape:pagecheckerboard="0"
     inkscape:deskcolor="#d1d1d1" />
  <metadata
     id="metadata1455">
    <rdf:RDF>
      <cc:Work
         rdf:about="">
        <dc:format>image/svg+xml</dc:format>
        <dc:type
           rdf:resource="http://purl.org/dc/dcmitype/StillImage" />
      </cc:Work>
    </rdf:RDF>
  </metadata>
  <g
     inkscape:groupmode="layer"
     id="layer2"
     inkscape:label="spód">
    <rect
       style="fill:#646464;fill-opacity:1;fill-rule:evenodd;stroke:#806600;stroke-width:0;stroke-miterlimit:4;stroke-dasharray:none"
       id="rect2024"
       width="210"
       height="148.98648"
       x="5.4839614e-07"
       y="5.4839614e-07"
       inkscape:label="tło" />
    <ellipse
       style="fill:#ffffff;fill-opacity:1;fill-rule:evenodd;stroke:#464646;stroke-width:0;stroke-miterlimit:4;stroke-dasharray:none"
       id="path3082"
       cx="54.750004"
       cy="70.214912"
       rx="39.75"
       ry="40.01495" />
  </g>
  <g
     inkscape:groupmode="layer"
     id="layer3"
     inkscape:label="logo">
    <ellipse
       style="fill:#808080;fill-opacity:0;stroke:url(#linearGradient11738);stroke-width:5.01664;stroke-miterlimit:4;stroke-dasharray:none;stroke-opacity:1"
       id="path7295"
       cx="55"
       cy="70.466576"
       inkscape:label="path7295"
       rx="37.499996"
       ry="37.749947" />
    <ellipse
       style="display:inline;fill:#808080;fill-opacity:1;stroke:#806600;stroke-width:0;stroke-miterlimit:4;stroke-dasharray:none;stroke-opacity:1"
       id="path9271"
       cx="54.999607"
       cy="70.466347"
       inkscape:label="szare koło"
       rx="35.565414"
       ry="35.802624" />
    <path
       style="fill:#ffffff;fill-opacity:1;stroke-width:0.234576"
       d="m 53.654024,73.76294 c -0.637492,-0.279515 -1.4737,-1.201977 -1.65722,-1.827954 -0.06755,-0.230486 -0.372218,-0.944449 -0.676909,-1.586592 -0.655263,-1.37978 -0.81132,-2.3072 -0.549286,-3.263283 0.168993,-0.61611 0.138287,-0.777916 -0.262363,-1.371857 -0.249441,-0.370352 -0.50631,-0.88851 -0.570605,-1.15147 -0.06426,-0.262944 -0.304363,-0.728936 -0.533451,-1.035511 -1.032654,-1.382483 -1.667555,-5.083736 -1.437826,-8.381144 l 0.117926,-1.692151 -0.486918,-0.122992 c -0.472068,-0.119274 -0.655588,-0.546432 -0.323435,-0.75299 0.08982,-0.05586 0.217771,-0.466857 0.284009,-0.913297 0.08787,-0.588697 0.349931,-1.081629 0.954141,-1.794145 0.458167,-0.540353 0.998719,-1.309319 1.200986,-1.708814 l 0.368348,-0.726367 -0.45397,-1.151432 c -1.045577,-2.651119 -1.065927,-4.00452 -0.09112,-6.04012 0.921832,-1.924934 2.768068,-2.959277 2.8818,-1.614503 0.02582,0.306581 0.209695,1.30993 0.408084,2.229671 0.198707,0.919736 0.410018,1.98844 0.470125,2.374895 l 0.108888,0.702638 0.526342,-0.377481 c 0.672061,-0.481631 1.559634,-0.481631 2.231378,0 l 0.52666,0.377481 0.108902,-0.702638 c 0.05974,-0.386455 0.271079,-1.455159 0.469795,-2.374895 0.198709,-0.919741 0.382239,-1.92309 0.408084,-2.229671 0.113727,-1.344774 1.959969,-0.310431 2.881791,1.614503 0.97482,2.0356 0.954459,3.389001 -0.0908,6.04012 l -0.453972,1.151432 0.372865,0.736182 c 0.205177,0.404899 0.705027,1.122017 1.110528,1.593593 0.40937,0.476475 0.825211,1.206324 0.935394,1.642702 0.108888,0.431912 0.29467,0.978854 0.412611,1.215431 0.172211,0.345477 0.161552,0.463781 -0.05398,0.601021 -0.147656,0.09399 -0.362525,0.172156 -0.477872,0.173721 -0.147985,0.0024 -0.208729,0.891124 -0.205498,3.022187 0.0035,2.161685 -0.08139,3.376732 -0.296287,4.277494 -0.293064,1.227368 -0.851713,2.54748 -1.315697,3.10829 -0.126653,0.153287 -0.281099,0.493854 -0.342819,0.756798 -0.06204,0.26296 -0.316639,0.781118 -0.566407,1.15147 -0.400328,0.593941 -0.431347,0.755748 -0.262364,1.371858 0.261077,0.951855 0.107284,1.878725 -0.541848,3.263282 -0.301133,0.642143 -0.647504,1.429443 -0.770289,1.74957 -0.269793,0.70537 -1.02619,1.460761 -1.73056,1.728705 -0.702436,0.267189 -1.941233,0.23714 -2.627515,-0.06374 z m 2.614264,-0.597368 c 0.347019,-0.16571 0.681105,-0.383093 0.74217,-0.483044 0.0695,-0.113187 -0.01935,-0.110832 -0.237155,0.0062 -0.575453,0.310033 -3.041412,0.238363 -3.571634,-0.103808 -0.441357,-0.284727 -0.449444,-0.282884 -0.184817,0.04189 0.659788,0.809392 2.163203,1.05858 3.251436,0.538803 z m -1.442352,-1.036496 c 0.172214,-0.173418 0.270761,-0.173418 0.442973,0 0.593878,0.597979 1.747372,-0.0047 2.090513,-1.092993 0.06168,-0.195956 0.215836,-0.356294 0.342813,-0.356294 0.126667,0 0.430058,-0.355341 0.674324,-0.789676 0.54121,-0.963191 0.597107,-2.527332 0.12214,-3.428175 -0.222947,-0.42259 -0.313097,-1.040828 -0.312119,-2.136763 0.0035,-2.328933 0.303075,-3.769876 1.198724,-5.740411 0.445564,-0.980557 0.910195,-2.181235 1.032005,-2.668183 0.218099,-0.872311 0.213254,-0.891743 -0.329242,-1.31903 -0.767059,-0.604336 -0.794529,-1.517912 -0.0695,-2.299459 0.543142,-0.585128 1.072067,-0.70874 1.665297,-0.389146 0.621329,0.334875 0.118253,-1.041639 -0.712774,-1.949143 -0.416491,-0.45484 -0.940569,-1.206639 -1.164484,-1.670659 -0.365116,-0.756345 -0.38159,-0.905722 -0.160586,-1.443231 1.440736,-3.504415 1.354793,-5.583955 -0.303724,-7.347621 -0.449765,-0.478483 -0.772223,-0.723706 -0.716645,-0.544933 0.249112,0.798445 0.333439,4.18879 0.128597,5.178229 -0.212278,1.025776 -0.62424,1.84268 -0.826177,1.639165 -0.05653,-0.05691 0.02912,-0.75315 0.189661,-1.547302 0.212599,-1.048877 0.255255,-1.833857 0.15638,-2.869208 l -0.136344,-1.425294 -0.238132,0.681506 c -0.13118,0.374825 -0.342492,1.48269 -0.469796,2.461934 -0.131832,1.015292 -0.316967,1.777167 -0.430379,1.77286 -0.109215,-0.004 -0.486278,-0.254989 -0.837824,-0.557416 -0.808409,-0.69566 -1.420375,-0.69566 -2.228794,0 -0.351535,0.302427 -0.72828,0.55326 -0.837813,0.557416 -0.113414,0.004 -0.29823,-0.757568 -0.430059,-1.77286 -0.127305,-0.979244 -0.338936,-2.087109 -0.470116,-2.461934 l -0.238458,-0.681506 -0.139253,1.2747 c -0.126014,1.151352 0.0339,2.85608 0.390307,4.160115 0.18999,0.695444 -0.287242,0.483959 -0.629088,-0.278712 -0.241034,-0.538344 -0.310505,-1.224841 -0.305011,-3.019335 0.0035,-1.277417 0.06621,-2.573417 0.138927,-2.879993 0.127958,-0.539827 0.106631,-0.529966 -0.673032,0.312568 -1.652366,1.785761 -1.73347,3.83777 -0.290472,7.347621 0.221003,0.537509 0.204202,0.686886 -0.160587,1.443231 -0.223914,0.46402 -0.747994,1.215819 -1.164472,1.670659 -0.831034,0.907504 -1.334442,2.284018 -0.712776,1.949143 0.59322,-0.319594 1.122147,-0.195982 1.66497,0.389146 0.725378,0.781547 0.697588,1.695123 -0.0695,2.299459 -0.542176,0.427287 -0.547022,0.446719 -0.328921,1.31903 0.121814,0.486948 0.58612,1.687626 1.032005,2.668183 0.892097,1.963023 1.19647,3.411915 1.198724,5.707566 0,1.134977 -0.09532,1.729573 -0.389019,2.397607 -0.293704,0.66879 -0.362524,1.09274 -0.277549,1.715483 0.129561,0.951826 0.806156,2.274369 1.163515,2.274369 0.133435,0 0.242649,0.09663 0.242649,0.214728 0,0.118082 0.211958,0.494347 0.470765,0.836122 0.497264,0.656342 1.271432,0.837026 1.707304,0.398437 z m -2.327667,-2.011813 c -0.472707,-0.510687 -0.861408,-1.838587 -0.611647,-2.089872 0.130215,-0.131079 0.250736,-0.03624 0.383205,0.301569 0.106305,0.271026 0.280461,0.714533 0.386765,0.985561 0.138614,0.35255 0.250078,0.435734 0.392578,0.292302 0.298549,-0.300441 0.03231,-1.077766 -0.588383,-1.716769 -0.303077,-0.312171 -0.551222,-0.622832 -0.551222,-0.690354 0,-0.06757 0.211639,-0.345223 0.470444,-0.617075 0.444918,-0.467555 0.476257,-0.634035 0.577714,-3.075965 0.119558,-2.8852 -0.172533,-5.474457 -0.96383,-8.539765 -0.533444,-2.067255 -0.520519,-1.938644 -0.196773,-1.938644 0.314065,0 0.940249,2.229015 1.43557,5.10966 0.26398,1.535331 0.341207,2.778751 0.310185,4.997515 -0.03977,2.830688 -0.06009,2.976081 -0.492091,3.492761 l -0.450739,0.539122 0.389668,0.417401 c 0.214221,0.229572 0.517296,0.748143 0.673037,1.152375 l 0.283683,0.734967 -0.08821,-0.723413 c -0.04846,-0.39788 -0.257838,-0.904944 -0.464631,-1.126807 -0.441037,-0.472476 -0.488213,-0.843956 -0.107582,-0.843956 0.326978,0 1.207447,1.45973 1.207447,2.001639 0,0.214308 -0.08433,0.613207 -0.187398,0.886451 -0.141197,0.373777 -0.245891,0.448133 -0.42295,0.30025 -0.173182,-0.144546 -0.294671,-0.100729 -0.460104,0.165607 -0.284979,0.459647 -0.488862,0.456437 -0.924734,-0.01454 z m 4.173257,0.01454 c -0.165114,-0.26633 -0.286924,-0.310152 -0.459785,-0.165598 -0.17706,0.147876 -0.281747,0.0735 -0.422951,-0.300249 -0.103397,-0.273244 -0.187717,-0.672144 -0.187717,-0.886444 0,-0.545455 0.881426,-2.001647 1.211646,-2.001647 0.236199,0 0.238781,-0.05698 0.01616,-0.418054 -0.433279,-0.709465 -0.401293,-5.716308 0.05361,-8.373832 0.481424,-2.811615 1.096619,-4.957731 1.42167,-4.957731 0.314057,0 0.327308,-0.124624 -0.205177,1.938645 -0.79129,3.0653 -1.083376,5.654556 -0.963832,8.539756 0.101453,2.441938 0.132797,2.608417 0.577724,3.075974 0.258804,0.271853 0.470444,0.54954 0.470444,0.617069 0,0.06757 -0.248153,0.378187 -0.55122,0.690358 -0.620371,0.639003 -0.886933,1.416329 -0.588383,1.71677 0.142489,0.143426 0.253967,0.06023 0.392578,-0.29231 0.106305,-0.271028 0.280452,-0.714534 0.386755,-0.985561 0.13247,-0.337818 0.252999,-0.432644 0.383206,-0.30156 0.394512,0.39703 -0.558651,2.46659 -1.136045,2.46659 -0.09661,0 -0.276902,-0.16297 -0.400656,-0.362159 z m 0.441039,-2.555277 c 0.218419,-0.234065 0.34282,-0.480479 0.275933,-0.547587 -0.124397,-0.125389 -0.858495,0.704132 -1.082409,1.223036 -0.06878,0.160075 -0.125361,0.500075 -0.125361,0.755559 0,0.371029 0.05398,0.316596 0.267537,-0.270456 0.147007,-0.404232 0.445885,-0.92648 0.664307,-1.160552 z M 50.61746,52.377923 c 0,-0.153296 0.08592,-0.278704 0.190959,-0.278704 0.105014,0 0.362197,-0.292643 0.571893,-0.65032 0.209705,-0.357677 0.455906,-0.650321 0.547353,-0.650321 0.331822,0 0.15541,0.72784 -0.311484,1.286382 -0.508893,0.60902 -0.998721,0.752669 -0.998721,0.292963 z m 7.860877,-0.292963 c -0.466884,-0.558542 -0.642979,-1.286382 -0.311474,-1.286382 0.09144,0 0.337976,0.292644 0.547343,0.650321 0.209695,0.357677 0.467212,0.65032 0.572229,0.65032 0.104674,0 0.19063,0.125404 0.19063,0.278704 0,0.459706 -0.489508,0.316057 -0.998728,-0.292963 z m -4.777139,-0.493677 c -0.04357,-0.07828 -0.137635,-0.393224 -0.208727,-0.699808 -0.07144,-0.306577 -0.383204,-0.87805 -0.693069,-1.26994 -0.374802,-0.474344 -0.501785,-0.774538 -0.378999,-0.898063 0.354119,-0.356548 1.704066,1.56706 1.704066,2.428349 0,0.386055 -0.286595,0.683803 -0.423271,0.439462 z m 2.387119,0.0071 c -0.214872,-0.216312 -0.122779,-0.805629 0.234892,-1.504283 0.494684,-0.96602 1.121508,-1.601948 1.350915,-1.370935 0.12278,0.123531 -0.0062,0.4246 -0.386436,0.9007 -0.314062,0.393328 -0.625216,0.987454 -0.691127,1.320255 -0.124723,0.627296 -0.304692,0.859127 -0.508244,0.654263 z m -4.90413,10.377763 C 51.043316,60.817249 50.82942,60.0821 50.368988,59.178039 49.757352,57.97631 49.021631,55.942006 48.902725,55.123075 c -0.03293,-0.227302 -0.126652,-0.478134 -0.208399,-0.557418 -0.08139,-0.07932 -0.107923,1.193657 -0.05815,2.828744 0.09823,3.247277 0.343789,4.405844 1.239764,5.852889 0.28466,0.459856 0.579978,1.04515 0.656229,1.300633 0.07622,0.255489 0.272055,0.643638 0.435225,0.862561 0.284012,0.381685 0.298551,0.351597 0.352184,-0.732179 0.02912,-0.621621 -0.02912,-1.837582 -0.135379,-2.702131 z m 8.379471,2.571747 c 0.07561,-0.255482 0.3706,-0.840769 0.655259,-1.300632 0.895977,-1.447046 1.141218,-2.605613 1.239766,-5.852891 0.04944,-1.635087 0.02262,-2.908015 -0.05849,-2.828743 -0.08139,0.07932 -0.175444,0.330117 -0.208408,0.557417 -0.118579,0.817842 -0.853968,2.852545 -1.463998,4.050545 -0.675942,1.327949 -0.973196,2.946673 -0.983216,5.35291 l -0.0062,1.372158 0.343787,-0.443117 c 0.189015,-0.24372 0.405501,-0.652156 0.481104,-0.907647 z m -9.765925,-10.51155 c 0.345725,-0.282303 0.342175,-0.288876 -0.103071,-0.188343 -0.253639,0.05731 -0.528605,0.105298 -0.610671,0.106689 -0.08208,0.0016 -0.09823,0.08616 -0.03523,0.188344 0.158324,0.257947 0.332802,0.233088 0.748962,-0.106688 z m 11.24834,0.106689 c 0.06266,-0.102191 0.04685,-0.186944 -0.03523,-0.188344 -0.08208,-0.0016 -0.357031,-0.04935 -0.610997,-0.106689 -0.445237,-0.10053 -0.448797,-0.09396 -0.103071,0.188343 0.416161,0.33978 0.590957,0.36464 0.74928,0.106689 z m -11.373378,-1.41714 c -0.505991,-0.542197 -1.085639,-0.58411 -1.085639,-0.07852 0,0.456447 0.453639,0.720242 1.042982,0.606794 l 0.453971,-0.08738 z m 11.834777,-0.07581 c 0,-0.511289 -0.579012,-0.466714 -1.093069,0.08416 l -0.4194,0.449231 0.433289,0.0716 c 0.599691,0.0991 1.07918,-0.169729 1.07918,-0.60498 z"
       id="path866"
       inkscape:transform-center-x="63.102514"
       inkscape:transform-center-y="-1.5143609" />
    <text
       xml:space="preserve"
       style="font-style:normal;font-variant:normal;font-weight:normal;font-stretch:normal;font-size:10.0528px;line-height:1.25;font-family:'Arial Black';-inkscape-font-specification:'Arial Black, Normal';font-variant-ligatures:normal;font-variant-caps:normal;font-variant-numeric:normal;font-variant-east-asian:normal;letter-spacing:0px;word-spacing:0px;fill:#ffffff;fill-opacity:1;stroke:none;stroke-width:0.318344"
       x="28.105852"
       y="79.456467"
       id="text20030"
       transform="scale(0.92152843,1.0851537)"><tspan
         sodipodi:role="line"
         id="tspan20028"
         style="font-style:normal;font-variant:normal;font-weight:normal;font-stretch:normal;font-size:10.0528px;font-family:'Arial Black';-inkscape-font-specification:'Arial Black, Normal';font-variant-ligatures:normal;font-variant-caps:normal;font-variant-numeric:normal;font-variant-east-asian:normal;fill:#ffffff;stroke-width:0.318344"
         x="28.105852"
         y="79.456467">LINY LU LU</tspan></text>
    <text
       xml:space="preserve"
       style="font-style:normal;font-variant:normal;font-weight:normal;font-stretch:normal;font-size:3.86008px;line-height:1.25;font-family:Arial;-inkscape-font-specification:'Arial, Normal';font-variant-ligatures:normal;font-variant-caps:normal;font-variant-numeric:normal;font-variant-east-asian:normal;letter-spacing:0px;word-spacing:0px;fill:#ffffff;fill-opacity:1;stroke:none;stroke-width:0.122237"
       x="39.774109"
       y="84.777496"
       id="text44282"
       transform="scale(0.89943967,1.1118033)"><tspan
         sodipodi:role="line"
         id="tspan44280"
         style="font-style:normal;font-variant:normal;font-weight:normal;font-stretch:normal;font-size:3.86008px;font-family:Arial;-inkscape-font-specification:'Arial, Normal';font-variant-ligatures:normal;font-variant-caps:normal;font-variant-numeric:normal;font-variant-east-asian:normal;fill:#ffffff;stroke-width:0.122237"
         x="39.774109"
         y="84.777496">HALTERY WODZE LINY</tspan></text>
    <text
       xml:space="preserve"
       id="text2097"
       style="font-size:3.52778px;line-height:1.25;font-family:Arial;-inkscape-font-specification:'Arial, Normal';white-space:pre;shape-inside:url(#rect2099);display:inline"
       inkscape:label="text2097" />
    <text
       xml:space="preserve"
       style="font-size:5.64206px;line-height:1.25;font-family:Arial;-inkscape-font-specification:'Arial, Normal';text-align:center;text-anchor:middle;fill:#ffffff;fill-opacity:1;stroke-width:0.211576"
       x="55.655296"
       y="125.16737"
       id="text2117"
       transform="scale(0.99019598,1.0099011)"><tspan
         sodipodi:role="line"
         id="tspan2"
         x="55.655296"
         y="125.16737"
         style="stroke-width:0.211576">znajdź nas na linylulu.com</tspan></text>
    <text
       xml:space="preserve"
       style="font-size:14.2997px;line-height:1.25;font-family:Arial;-inkscape-font-specification:'Arial, Normal';fill:#ece9a8;fill-opacity:1;stroke-width:0;stroke-miterlimit:4;stroke-dasharray:none"
       x="28.753061"
       y="20.551659"
       id="text3039"
       transform="scale(1.0066976,0.99334694)"><tspan
         sodipodi:role="line"
         id="tspan3037"
         x="28.753061"
         y="20.551659"
         style="font-size:14.2997px;fill:#ece9a8;fill-opacity:1;stroke-width:0;stroke-miterlimit:4;stroke-dasharray:none">BON PODARUNKOWY</tspan></text>
  </g>
  <g
     inkscape:groupmode="layer"
     id="layer4"
     inkscape:label="dane">
    <rect
       style="fill:#ffffff;fill-opacity:1;fill-rule:evenodd;stroke:#464646;stroke-width:0.514592;stroke-linejoin:miter;stroke-miterlimit:4;stroke-dasharray:none;stroke-opacity:1"
       id="rect2423-3"
       width="84.620537"
       height="17.931353"
       x="110.93298"
       y="91.068108"
       ry="3.0495503" />
    <rect
       style="fill:#ffffff;fill-opacity:1;fill-rule:evenodd;stroke:#464646;stroke-width:0.514592;stroke-linejoin:miter;stroke-miterlimit:4;stroke-dasharray:none;stroke-opacity:1"
       id="rect2423"
       width="84.620537"
       height="17.931353"
       x="110.93298"
       y="35.730267"
       ry="3.0495503" />
    <text
       xml:space="preserve"
       style="font-size:8.49484px;line-height:1.25;font-family:Arial;-inkscape-font-specification:'Arial, Normal';fill:#ffffff;fill-opacity:1;stroke-width:0.265463"
       x="120.10891"
       y="31.16396"
       id="text3043"
       transform="scale(0.99668384,1.0033272)"><tspan
         sodipodi:role="line"
         id="tspan3041"
         x="120.10891"
         y="31.16396"
         style="font-size:8.49484px;fill:#ffffff;fill-opacity:1;stroke-width:0.265463">dla</tspan></text>
    <text
       xml:space="preserve"
       style="font-size:8.49484px;line-height:1.25;font-family:Arial;-inkscape-font-specification:'Arial, Normal';fill:#ffffff;fill-opacity:1;stroke-width:0.265463"
       x="120.37437"
       y="86.380135"
       id="text3047"
       transform="scale(0.99668384,1.0033272)"><tspan
         sodipodi:role="line"
         id="tspan3045"
         x="120.37437"
         y="86.380135"
         style="font-size:8.49484px;fill:#ffffff;fill-opacity:1;stroke-width:0.265463">wartość</tspan></text>
    <text
       xml:space="preserve"
       style="font-size:8.49484px;line-height:1.25;font-family:Arial;-inkscape-font-specification:'Arial, Normal';fill:#ffffff;fill-opacity:1;stroke-width:0.265463"
       x="120.10891"
       y="121.49659"
       id="text3051"
       transform="scale(0.99668384,1.0033272)"><tspan
         sodipodi:role="line"
         id="tspan3049"
         x="120.10891"
         y="121.49659"
         style="font-size:8.49484px;fill:#ffffff;fill-opacity:1;stroke-width:0.265463">data ważności</tspan></text>
    <rect
       style="fill:#ffffff;fill-opacity:1;fill-rule:evenodd;stroke:#464646;stroke-width:0.514592;stroke-linejoin:miter;stroke-miterlimit:4;stroke-dasharray:none;stroke-opacity:1"
       id="rect2423-8"
       width="84.620537"
       height="17.931353"
       x="110.93298"
       y="126.54108"
       ry="3.0495503" />
    <rect
       style="fill:#ffffff;fill-opacity:1;fill-rule:evenodd;stroke:#464646;stroke-width:0.514592;stroke-linejoin:miter;stroke-miterlimit:4;stroke-dasharray:none;stroke-opacity:1"
       id="rect2423-3-2"
       width="84.620537"
       height="17.931353"
       x="110.93298"
       y="57.01405"
       ry="3.0495503" />
    <rect
       style="fill:#ffffff;fill-opacity:1;fill-rule:evenodd;stroke:#464646;stroke-width:0.2921;stroke-linejoin:miter;stroke-miterlimit:4;stroke-dasharray:none;stroke-opacity:1"
       id="rect2423-4"
       width="35.180874"
       height="13.897089"
       x="4.4028063"
       y="132.10551"
       ry="2.363451" />
  </g>
</svg>
