<?xml version="1.0" encoding="UTF-8" standalone="no"?>
<svg
   width="148mm"
   height="105mm"
   viewBox="0 0 148 105"
   version="1.1"
   id="svg1458"
   inkscape:version="1.3.2 (1:1.3.2+202311252150+091e20ef0f)"
   sodipodi:docname="voucher_A6L.svg"
   xmlns:inkscape="http://www.inkscape.org/namespaces/inkscape"
   xmlns:sodipodi="http://sodipodi.sourceforge.net/DTD/sodipodi-0.dtd"
   xmlns:xlink="http://www.w3.org/1999/xlink"
   xmlns="http://www.w3.org/2000/svg"
   xmlns:svg="http://www.w3.org/2000/svg"
   xmlns:rdf="http://www.w3.org/1999/02/22-rdf-syntax-ns#"
   xmlns:cc="http://creativecommons.org/ns#"
   xmlns:dc="http://purl.org/dc/elements/1.1/">
  <defs
     id="defs1452">
    <marker
       style="overflow:visible"
       id="Arrow1Lstart"
       refX="0"
       refY="0"
       orient="auto"
       inkscape:stockid="Arrow1Lstart"
       inkscape:isstock="true">
      <path
         transform="matrix(0.8,0,0,0.8,10,0)"
         style="fill-rule:evenodd;stroke:#000000;stroke-width:1pt"
         d="M 0,0 5,-5 -12.5,0 5,5 Z"
         id="path2142" />
    </marker>
    <rect
       x="12.561668"
       y="118.13313"
       width="90.069832"
       height="15.501633"
       id="rect2099" />
    <rect
       x="12.294398"
       y="122.14217"
       width="95.415222"
       height="15.234363"
       id="rect2093" />
    <linearGradient
       inkscape:collect="always"
       xlink:href="#linearGradient12000"
       id="linearGradient11738"
       x1="87.661674"
       y1="39.697964"
       x2="87.897057"
       y2="73.493118"
       gradientUnits="userSpaceOnUse"
       spreadMethod="reflect"
       gradientTransform="matrix(1.0758329,0,0,1.0223394,-52.644713,-30.278064)" />
    <linearGradient
       inkscape:collect="always"
       id="linearGradient12000">
      <stop
         style="stop-color:#806600;stop-opacity:1"
         offset="0"
         id="stop11996" />
      <stop
         style="stop-color:#eded00;stop-opacity:0;"
         offset="1"
         id="stop11998" />
    </linearGradient>
  </defs>
  <sodipodi:namedview
     id="base"
     pagecolor="#ffffff"
     bordercolor="#666666"
     borderopacity="1.0"
     inkscape:pageopacity="0.0"
     inkscape:pageshadow="2"
     inkscape:zoom="1"
     inkscape:cx="338"
     inkscape:cy="390.5"
     inkscape:document-units="mm"
     inkscape:current-layer="layer4"
     inkscape:document-rotation="0"
     showgrid="false"
     inkscape:window-width="1920"
     inkscape:window-height="1176"
     inkscape:window-x="1920"
     inkscape:window-y="0"
     inkscape:window-maximized="1"
     inkscape:showpageshadow="2"
     inkscape:pagecheckerboard="0"
     inkscape:deskcolor="#d1d1d1" />
  <metadata
     id="metadata1455">
    <rdf:RDF>
      <cc:Work
         rdf:about="">
        <dc:format>image/svg+xml</dc:format>
        <dc:type
           rdf:resource="http://purl.org/dc/dcmitype/StillImage" />
      </cc:Work>
    </rdf:RDF>
  </metadata>
  <g
     inkscape:groupmode="layer"
     id="layer2"
     inkscape:label="spód">
    <rect
       style="fill:#646464;fill-opacity:1;fill-rule:evenodd;stroke:#806600;stroke-width:0;stroke-miterlimit:4;stroke-dasharray:none"
       id="rect2024"
       width="148"
       height="105"
       x="5.4839614e-07"
       y="5.4839614e-07"
       inkscape:label="tło" />
    <ellipse
       style="fill:#ffffff;fill-opacity:1;fill-rule:evenodd;stroke:#464646;stroke-width:0;stroke-miterlimit:4;stroke-dasharray:none"
       id="path3082"
       cx="38.585716"
       cy="49.484795"
       rx="28.014286"
       ry="28.201014" />
  </g>
  <g
     inkscape:groupmode="layer"
     id="layer3"
     inkscape:label="logo">
    <ellipse
       style="fill:#808080;fill-opacity:0;stroke:url(#linearGradient11738);stroke-width:3.53554;stroke-miterlimit:4;stroke-dasharray:none;stroke-opacity:1"
       id="path7295"
       cx="38.761906"
       cy="49.662159"
       inkscape:label="path7295"
       rx="26.428568"
       ry="26.604725" />
    <ellipse
       style="display:inline;fill:#808080;fill-opacity:1;stroke:#806600;stroke-width:0;stroke-miterlimit:4;stroke-dasharray:none;stroke-opacity:1"
       id="path9271"
       cx="38.761627"
       cy="49.661999"
       inkscape:label="szare koło"
       rx="25.065149"
       ry="25.232325" />
    <path
       style="fill:#ffffff;fill-opacity:1;stroke-width:0.16532"
       d="m 37.813312,51.98531 c -0.44928,-0.196991 -1.038607,-0.847107 -1.167945,-1.288272 -0.04761,-0.162438 -0.262325,-0.665612 -0.47706,-1.11817 -0.461804,-0.972416 -0.571787,-1.626026 -0.387116,-2.299837 0.1191,-0.434211 0.09746,-0.548246 -0.184903,-0.966833 -0.175797,-0.26101 -0.356828,-0.626188 -0.402141,-0.811512 -0.04529,-0.185313 -0.214503,-0.513726 -0.375956,-0.729789 -0.727775,-0.974321 -1.175229,-3.582823 -1.013325,-5.906711 l 0.08311,-1.192563 -0.343161,-0.08668 c -0.332696,-0.08406 -0.462034,-0.385105 -0.227945,-0.530679 0.0633,-0.03937 0.153477,-0.329023 0.200159,-0.643657 0.06193,-0.414891 0.246618,-0.762291 0.672442,-1.264445 0.322899,-0.38082 0.703859,-0.922758 0.846409,-1.204307 l 0.259598,-0.511916 -0.319941,-0.811485 c -0.736883,-1.868408 -0.751225,-2.822233 -0.06422,-4.256847 0.649672,-1.35662 1.950829,-2.085585 2.030983,-1.13784 0.0182,0.216067 0.147785,0.923189 0.287602,1.571387 0.140041,0.648195 0.288965,1.401377 0.331326,1.673736 l 0.07674,0.495192 0.370946,-0.266034 c 0.473643,-0.339435 1.099171,-0.339435 1.57259,0 l 0.37117,0.266034 0.07675,-0.495192 c 0.0421,-0.272359 0.191046,-1.025541 0.331094,-1.673736 0.140042,-0.648198 0.269387,-1.35532 0.287602,-1.571387 0.08015,-0.947745 1.381311,-0.21878 2.030976,1.13784 0.687016,1.434614 0.672667,2.388439 -0.06399,4.256847 l -0.319942,0.811485 0.262781,0.518833 c 0.144601,0.285358 0.496876,0.790755 0.782658,1.123104 0.288508,0.335801 0.581577,0.850171 0.65923,1.157714 0.07674,0.304395 0.207672,0.689859 0.290792,0.856589 0.121368,0.243479 0.113856,0.326855 -0.03804,0.423577 -0.104062,0.06624 -0.255494,0.121329 -0.336786,0.122432 -0.104294,0.0017 -0.147104,0.62803 -0.144827,2.129922 0.0025,1.523473 -0.05736,2.379792 -0.208812,3.014615 -0.20654,0.865002 -0.600255,1.795367 -0.927253,2.190604 -0.08926,0.108031 -0.198108,0.34805 -0.241606,0.533363 -0.04372,0.185324 -0.223155,0.550502 -0.399182,0.811512 -0.282136,0.418587 -0.303997,0.532622 -0.184904,0.966833 0.183997,0.670831 0.07561,1.324054 -0.381874,2.299837 -0.212227,0.452558 -0.456336,1.007417 -0.54287,1.23303 -0.19014,0.497118 -0.72322,1.029489 -1.219633,1.218326 -0.49505,0.188304 -1.368107,0.167127 -1.851772,-0.04492 z m 1.842434,-0.421002 c 0.244566,-0.116786 0.480017,-0.269989 0.523053,-0.340431 0.04898,-0.07977 -0.01364,-0.07811 -0.167138,0.0044 -0.405557,0.218499 -2.143471,0.167989 -2.517151,-0.07316 -0.311052,-0.200665 -0.316751,-0.199366 -0.130252,0.02952 0.464993,0.570429 1.524543,0.746047 2.291488,0.379728 z m -1.016515,-0.730483 c 0.12137,-0.122218 0.190822,-0.122218 0.312191,0 0.418542,0.421433 1.231481,-0.0033 1.473314,-0.7703 0.04347,-0.138102 0.152113,-0.251102 0.241601,-0.251102 0.08927,0 0.303089,-0.250431 0.475238,-0.556534 0.381424,-0.67882 0.420818,-1.781167 0.08608,-2.416047 -0.157125,-0.297825 -0.220659,-0.733536 -0.21997,-1.505909 0.0025,-1.641343 0.213596,-2.656865 0.844815,-4.045623 0.314017,-0.691059 0.641471,-1.537251 0.727318,-1.880434 0.153708,-0.614771 0.150293,-0.628466 -0.232037,-0.929602 -0.540594,-0.425913 -0.559954,-1.069766 -0.04898,-1.620571 0.382786,-0.412376 0.755552,-0.499493 1.173638,-0.274255 0.437889,0.236007 0.08334,-0.734108 -0.502336,-1.373682 -0.293527,-0.320554 -0.662877,-0.850393 -0.820684,-1.177417 -0.25732,-0.533043 -0.26893,-0.638318 -0.113175,-1.017134 1.015376,-2.469778 0.954807,-3.935359 -0.214053,-5.178323 -0.316977,-0.337217 -0.544233,-0.510041 -0.505064,-0.384048 0.175565,0.562713 0.234995,2.952099 0.09063,3.649418 -0.149605,0.722928 -0.43994,1.298651 -0.582258,1.155221 -0.03984,-0.04011 0.02052,-0.530791 0.133666,-1.090479 0.149832,-0.739209 0.179894,-1.292433 0.110211,-2.022109 l -0.09609,-1.004493 -0.167827,0.4803 c -0.09245,0.264162 -0.241375,1.044943 -0.331094,1.735077 -0.09291,0.715539 -0.223386,1.25248 -0.303315,1.249444 -0.07697,-0.0028 -0.34271,-0.179706 -0.590466,-0.392845 -0.569736,-0.490275 -1.001026,-0.490275 -1.570769,0 -0.247749,0.213139 -0.513264,0.389916 -0.590459,0.392845 -0.07993,0.0028 -0.210181,-0.533905 -0.303089,-1.249444 -0.08972,-0.690134 -0.238869,-1.470915 -0.33132,-1.735077 l -0.168056,-0.4803 -0.09814,0.89836 c -0.08881,0.811429 0.02389,2.012857 0.275073,2.931891 0.133898,0.490122 -0.202437,0.341076 -0.443357,-0.196426 -0.169872,-0.379404 -0.218832,-0.863221 -0.21496,-2.127912 0.0025,-0.900275 0.04666,-1.813646 0.09791,-2.029709 0.09018,-0.38045 0.07515,-0.3735 -0.474327,0.220286 -1.164525,1.258536 -1.221684,2.704714 -0.204714,5.178323 0.155755,0.378816 0.143914,0.484091 -0.113175,1.017134 -0.157806,0.327024 -0.527158,0.856863 -0.820676,1.177417 -0.585681,0.639574 -0.940464,1.609689 -0.502337,1.373682 0.418079,-0.225238 0.790846,-0.138121 1.173407,0.274255 0.511219,0.550805 0.491634,1.194658 -0.04898,1.620571 -0.382105,0.301136 -0.38552,0.314831 -0.231811,0.929602 0.08585,0.343183 0.413075,1.189375 0.727318,1.880434 0.628716,1.383464 0.843226,2.404588 0.844815,4.022475 0,0.799889 -0.06718,1.218937 -0.274166,1.689742 -0.206991,0.471338 -0.255493,0.770122 -0.195606,1.209007 0.09131,0.670811 0.568148,1.602889 0.820001,1.602889 0.09404,0 0.17101,0.0681 0.17101,0.151332 0,0.08322 0.14938,0.348397 0.331777,0.589267 0.350453,0.462565 0.896057,0.589904 1.203243,0.280803 z M 36.99878,49.415976 c -0.333146,-0.359913 -0.607087,-1.295766 -0.431065,-1.472862 0.09177,-0.09238 0.176709,-0.02554 0.270068,0.212534 0.07492,0.191009 0.197658,0.503576 0.272577,0.694586 0.09769,0.248464 0.176246,0.307089 0.276674,0.206003 0.210406,-0.211739 0.02277,-0.759568 -0.41467,-1.209913 -0.213597,-0.220006 -0.38848,-0.438948 -0.38848,-0.486535 0,-0.04762 0.149155,-0.2433 0.331551,-0.434891 0.313561,-0.329515 0.335648,-0.446844 0.407151,-2.167823 0.08426,-2.033379 -0.121595,-3.858189 -0.679271,-6.018501 -0.375951,-1.456923 -0.366842,-1.366283 -0.138678,-1.366283 0.221341,0 0.662652,1.570925 1.011735,3.601094 0.186043,1.082043 0.24047,1.958358 0.218607,3.522058 -0.02803,1.994961 -0.04235,2.097429 -0.346807,2.461565 l -0.317664,0.379953 0.274623,0.294168 c 0.150975,0.161794 0.364571,0.527263 0.474331,0.81215 l 0.199929,0.517977 -0.06217,-0.509834 c -0.03415,-0.280411 -0.181714,-0.63777 -0.327454,-0.794131 -0.310826,-0.332983 -0.344074,-0.594788 -0.07582,-0.594788 0.230442,0 0.850963,1.028762 0.850963,1.410679 0,0.151036 -0.05943,0.432165 -0.132071,0.624737 -0.09951,0.263424 -0.173295,0.315827 -0.298079,0.211605 -0.122052,-0.101871 -0.207673,-0.07099 -0.324264,0.116713 -0.200842,0.323942 -0.344531,0.32168 -0.651717,-0.01025 z m 2.941153,0.01025 c -0.116366,-0.187699 -0.202213,-0.218583 -0.324039,-0.116707 -0.124785,0.104217 -0.198565,0.0518 -0.29808,-0.211604 -0.07287,-0.192572 -0.132296,-0.473702 -0.132296,-0.624732 0,-0.384416 0.621196,-1.410685 0.853922,-1.410685 0.166464,0 0.168284,-0.04016 0.01139,-0.294628 -0.305359,-0.500004 -0.282816,-4.028636 0.03778,-5.901558 0.339289,-1.981519 0.772855,-3.49402 1.001939,-3.49402 0.221335,0 0.230674,-0.08783 -0.144601,1.366283 -0.557671,2.160307 -0.763522,3.985116 -0.679272,6.018495 0.0715,1.720985 0.09359,1.838313 0.407158,2.167829 0.182395,0.191592 0.331551,0.387295 0.331551,0.434887 0,0.04762 -0.174889,0.266532 -0.388479,0.486538 -0.437214,0.450345 -0.625077,0.998175 -0.41467,1.209914 0.100421,0.101081 0.178986,0.04245 0.276674,-0.206009 0.07492,-0.19101 0.197652,-0.503576 0.27257,-0.694586 0.09336,-0.238081 0.178304,-0.304911 0.270069,-0.212528 0.278037,0.279812 -0.393716,1.738359 -0.800641,1.738359 -0.06809,0 -0.19515,-0.114855 -0.282367,-0.255236 z m 0.310827,-1.800862 c 0.153934,-0.16496 0.241607,-0.338623 0.194467,-0.385918 -0.08767,-0.08837 -0.605034,0.496245 -0.76284,0.861949 -0.04847,0.112815 -0.08835,0.352434 -0.08835,0.532489 0,0.261487 0.03804,0.223125 0.18855,-0.190607 0.103605,-0.284887 0.314243,-0.652948 0.468178,-0.817913 z M 35.673258,36.913965 c 0,-0.108037 0.06055,-0.19642 0.13458,-0.19642 0.07401,0 0.255263,-0.206244 0.403049,-0.458321 0.147792,-0.252077 0.321305,-0.458321 0.385753,-0.458321 0.233856,0 0.109527,0.512954 -0.219522,0.906593 -0.358648,0.429214 -0.70386,0.530452 -0.70386,0.206469 z m 5.540046,-0.206469 c -0.329042,-0.393639 -0.453147,-0.906593 -0.219515,-0.906593 0.06444,0 0.238193,0.206244 0.385747,0.458321 0.147785,0.252077 0.329273,0.458321 0.403285,0.458321 0.07377,0 0.134349,0.08838 0.134349,0.19642 0,0.323983 -0.344987,0.222745 -0.703866,-0.206469 z m -3.366745,-0.347925 c -0.03071,-0.05517 -0.097,-0.277129 -0.147103,-0.493198 -0.05035,-0.216064 -0.270068,-0.618816 -0.488449,-0.895005 -0.264146,-0.3343 -0.353639,-0.545865 -0.267104,-0.632921 0.24957,-0.251281 1.200961,1.104404 1.200961,1.711408 0,0.272077 -0.201981,0.481918 -0.298305,0.309716 z m 1.68235,0.005 c -0.151433,-0.152448 -0.08653,-0.567776 0.165543,-1.060161 0.348635,-0.680814 0.790396,-1.128992 0.952074,-0.966183 0.08653,0.08706 -0.0044,0.299242 -0.272346,0.634779 -0.221339,0.277203 -0.440628,0.69592 -0.48708,0.930466 -0.0879,0.442094 -0.214735,0.60548 -0.358191,0.461099 z m -3.456244,7.313852 c -0.09928,-0.816746 -0.250026,-1.334851 -0.574521,-1.971999 -0.431058,-0.846933 -0.949566,-2.280633 -1.033366,-2.857784 -0.02321,-0.160194 -0.08926,-0.336971 -0.146872,-0.392847 -0.05736,-0.0559 -0.07606,0.841244 -0.04098,1.993591 0.06923,2.288557 0.24229,3.105071 0.873739,4.124893 0.200617,0.324089 0.408746,0.736582 0.462485,0.916637 0.05372,0.180059 0.191734,0.453611 0.30673,0.6079 0.200161,0.268997 0.210407,0.247792 0.248206,-0.516012 0.02052,-0.438095 -0.02052,-1.295058 -0.09541,-1.904359 z m 5.905532,1.81247 c 0.05329,-0.180054 0.261185,-0.592542 0.461802,-0.916636 0.63145,-1.019823 0.804287,-1.836337 0.87374,-4.124895 0.03484,-1.152347 0.01594,-2.049458 -0.04122,-1.99359 -0.05736,0.0559 -0.123646,0.232654 -0.146878,0.392846 -0.08357,0.576384 -0.601844,2.010365 -1.03177,2.85467 -0.476378,0.935888 -0.685871,2.076703 -0.692933,3.772527 l -0.0044,0.967045 0.242288,-0.312292 c 0.133211,-0.171765 0.285782,-0.459615 0.339064,-0.639675 z m -6.882652,-7.40814 c 0.243654,-0.198957 0.241152,-0.203589 -0.07264,-0.132737 -0.178755,0.04039 -0.372541,0.07421 -0.430378,0.07519 -0.05785,0.0011 -0.06923,0.06072 -0.02483,0.132738 0.111581,0.181791 0.234546,0.164271 0.52784,-0.07519 z m 7.927402,0.07519 c 0.04416,-0.07202 0.03302,-0.131751 -0.02483,-0.132738 -0.05785,-0.0011 -0.251622,-0.03478 -0.430608,-0.07519 -0.313786,-0.07085 -0.316295,-0.06622 -0.07264,0.132737 0.293294,0.239464 0.416484,0.256984 0.528064,0.07519 z m -8.015524,-0.998746 c -0.356603,-0.38212 -0.765117,-0.411659 -0.765117,-0.05534 0,0.321686 0.319708,0.507599 0.735054,0.427645 l 0.319942,-0.06158 z m 8.3407,-0.05343 c 0,-0.360337 -0.408065,-0.328922 -0.770353,0.05931 l -0.295577,0.316601 0.305365,0.05046 c 0.42264,0.06984 0.760565,-0.119619 0.760565,-0.426367 z"
       id="path866"
       inkscape:transform-center-x="44.472248"
       inkscape:transform-center-y="-1.0672638" />
    <text
       xml:space="preserve"
       style="font-style:normal;font-variant:normal;font-weight:normal;font-stretch:normal;font-size:7.08485px;line-height:1.25;font-family:'Arial Black';-inkscape-font-specification:'Arial Black, Normal';font-variant-ligatures:normal;font-variant-caps:normal;font-variant-numeric:normal;font-variant-east-asian:normal;letter-spacing:0px;word-spacing:0px;fill:#ffffff;fill-opacity:1;stroke:none;stroke-width:0.224357"
       x="19.807934"
       y="55.99789"
       id="text20030"
       transform="scale(0.92152841,1.0851537)"><tspan
         sodipodi:role="line"
         id="tspan20028"
         style="font-style:normal;font-variant:normal;font-weight:normal;font-stretch:normal;font-size:7.08485px;font-family:'Arial Black';-inkscape-font-specification:'Arial Black, Normal';font-variant-ligatures:normal;font-variant-caps:normal;font-variant-numeric:normal;font-variant-east-asian:normal;fill:#ffffff;stroke-width:0.224357"
         x="19.807934"
         y="55.99789">LINY LU LU</tspan></text>
    <text
       xml:space="preserve"
       style="font-style:normal;font-variant:normal;font-weight:normal;font-stretch:normal;font-size:2.72044px;line-height:1.25;font-family:Arial;-inkscape-font-specification:'Arial, Normal';font-variant-ligatures:normal;font-variant-caps:normal;font-variant-numeric:normal;font-variant-east-asian:normal;letter-spacing:0px;word-spacing:0px;fill:#ffffff;fill-opacity:1;stroke:none;stroke-width:0.0861483"
       x="28.031277"
       y="59.747952"
       id="text44282"
       transform="scale(0.89943967,1.1118033)"><tspan
         sodipodi:role="line"
         id="tspan44280"
         style="font-style:normal;font-variant:normal;font-weight:normal;font-stretch:normal;font-size:2.72044px;font-family:Arial;-inkscape-font-specification:'Arial, Normal';font-variant-ligatures:normal;font-variant-caps:normal;font-variant-numeric:normal;font-variant-east-asian:normal;fill:#ffffff;stroke-width:0.0861483"
         x="28.031277"
         y="59.747952">HALTERY WODZE LINY</tspan></text>
    <text
       xml:space="preserve"
       id="text2097"
       style="font-size:3.52778px;line-height:1.25;font-family:Arial;-inkscape-font-specification:'Arial, Normal';white-space:pre;shape-inside:url(#rect2099);display:inline"
       inkscape:label="text2097" />
    <text
       xml:space="preserve"
       style="font-size:3.97631px;line-height:1.25;font-family:Arial;-inkscape-font-specification:'Arial, Normal';text-align:center;text-anchor:middle;fill:#ffffff;fill-opacity:1;stroke-width:0.149111"
       x="39.223732"
       y="88.213188"
       id="text2117"
       transform="scale(0.99019599,1.0099011)"><tspan
         sodipodi:role="line"
         id="tspan2"
         x="39.223732"
         y="88.213188"
         style="stroke-width:0.149111">znajdź nas na linylulu.com</tspan></text>
    <text
       xml:space="preserve"
       style="font-size:10.0779px;line-height:1.25;font-family:Arial;-inkscape-font-specification:'Arial, Normal';fill:#ece9a8;fill-opacity:1;stroke-width:0;stroke-miterlimit:4;stroke-dasharray:none"
       x="20.264063"
       y="14.484027"
       id="text3039"
       transform="scale(1.0066976,0.99334692)"><tspan
         sodipodi:role="line"
         id="tspan3037"
         x="20.264063"
         y="14.484027"
         style="font-size:10.0779px;fill:#ece9a8;fill-opacity:1;stroke-width:0;stroke-miterlimit:4;stroke-dasharray:none">BON PODARUNKOWY</tspan></text>
  </g>
  <g
     inkscape:groupmode="layer"
     id="layer4"
     inkscape:label="dane">
    <rect
       style="fill:#ffffff;fill-opacity:1;fill-rule:evenodd;stroke:#464646;stroke-width:0.362665;stroke-linejoin:miter;stroke-miterlimit:4;stroke-dasharray:none;stroke-opacity:1"
       id="rect2423-3"
       width="59.637333"
       height="12.637335"
       x="78.181335"
       y="64.181335"
       ry="2.1492069" />
    <rect
       style="fill:#ffffff;fill-opacity:1;fill-rule:evenodd;stroke:#464646;stroke-width:0.362665;stroke-linejoin:miter;stroke-miterlimit:4;stroke-dasharray:none;stroke-opacity:1"
       id="rect2423"
       width="59.637333"
       height="12.637335"
       x="78.181335"
       y="25.181332"
       ry="2.1492069" />
    <text
       xml:space="preserve"
       style="font-size:5.98684px;line-height:1.25;font-family:Arial;-inkscape-font-specification:'Arial, Normal';fill:#ffffff;fill-opacity:1;stroke-width:0.187088"
       x="84.648186"
       y="21.963171"
       id="text3043"
       transform="scale(0.99668385,1.0033272)"><tspan
         sodipodi:role="line"
         id="tspan3041"
         x="84.648186"
         y="21.963171"
         style="font-size:5.98684px;fill:#ffffff;fill-opacity:1;stroke-width:0.187088">dla</tspan></text>
    <text
       xml:space="preserve"
       style="font-size:5.98684px;line-height:1.25;font-family:Arial;-inkscape-font-specification:'Arial, Normal';fill:#ffffff;fill-opacity:1;stroke-width:0.187088"
       x="84.835274"
       y="60.87743"
       id="text3047"
       transform="scale(0.99668385,1.0033272)"><tspan
         sodipodi:role="line"
         id="tspan3045"
         x="84.835274"
         y="60.87743"
         style="font-size:5.98684px;fill:#ffffff;fill-opacity:1;stroke-width:0.187088">wartość</tspan></text>
    <text
       xml:space="preserve"
       style="font-size:5.98684px;line-height:1.25;font-family:Arial;-inkscape-font-specification:'Arial, Normal';fill:#ffffff;fill-opacity:1;stroke-width:0.187088"
       x="84.648186"
       y="85.626167"
       id="text3051"
       transform="scale(0.99668385,1.0033272)"><tspan
         sodipodi:role="line"
         id="tspan3049"
         x="84.648186"
         y="85.626167"
         style="font-size:5.98684px;fill:#ffffff;fill-opacity:1;stroke-width:0.187088">data ważności</tspan></text>
    <rect
       style="fill:#ffffff;fill-opacity:1;fill-rule:evenodd;stroke:#464646;stroke-width:0.362665;stroke-linejoin:miter;stroke-miterlimit:4;stroke-dasharray:none;stroke-opacity:1"
       id="rect2423-8"
       width="59.637333"
       height="12.637335"
       x="78.181335"
       y="89.181335"
       ry="2.1492069" />
    <rect
       style="fill:#ffffff;fill-opacity:1;fill-rule:evenodd;stroke:#464646;stroke-width:0.362665;stroke-linejoin:miter;stroke-miterlimit:4;stroke-dasharray:none;stroke-opacity:1"
       id="rect2423-3-2"
       width="59.637333"
       height="12.637335"
       x="78.181335"
       y="40.181332"
       ry="2.1492069" />
    <rect
       style="fill:#ffffff;fill-opacity:1;fill-rule:evenodd;stroke:#464646;stroke-width:0.205861;stroke-linejoin:miter;stroke-miterlimit:4;stroke-dasharray:none;stroke-opacity:1"
       id="rect2423-4"
       width="24.79414"
       height="9.7941389"
       x="3.1029303"
       y="93.102936"
       ry="1.6656702" />
  </g>
</svg>
