<?xml version="1.0" encoding="UTF-8" standalone="no"?>
<svg
   xmlns:dc="http://purl.org/dc/elements/1.1/"
   xmlns:cc="http://creativecommons.org/ns#"
   xmlns:rdf="http://www.w3.org/1999/02/22-rdf-syntax-ns#"
   xmlns:svg="http://www.w3.org/2000/svg"
   xmlns="http://www.w3.org/2000/svg"
   xmlns:xlink="http://www.w3.org/1999/xlink"
   xmlns:sodipodi="http://sodipodi.sourceforge.net/DTD/sodipodi-0.dtd"
   xmlns:inkscape="http://www.inkscape.org/namespaces/inkscape"
   width="210mm"
   height="148mm"
   viewBox="0 0 210 148"
   version="1.1"
   id="svg1458"
   inkscape:version="1.0.2 (e86c870879, 2021-01-15, custom)"
   sodipodi:docname="voucher.svg">
  <defs
     id="defs1452">
    <marker
       style="overflow:visible"
       id="Arrow1Lstart"
       refX="0.0"
       refY="0.0"
       orient="auto"
       inkscape:stockid="Arrow1Lstart"
       inkscape:isstock="true">
      <path
         transform="scale(0.8) translate(12.5,0)"
         style="fill-rule:evenodd;stroke:#000000;stroke-width:1.0pt"
         d="M 0.0,0.0 L 5.0,-5.0 L -12.5,0.0 L 5.0,5.0 L 0.0,0.0 z "
         id="path2142" />
    </marker>
    <rect
       x="12.561668"
       y="118.13313"
       width="90.069831"
       height="15.501633"
       id="rect2099" />
    <rect
       x="12.294398"
       y="122.14217"
       width="95.415221"
       height="15.234363"
       id="rect2093" />
    <linearGradient
       inkscape:collect="always"
       xlink:href="#linearGradient12000"
       id="linearGradient11738"
       x1="87.661674"
       y1="39.697964"
       x2="87.897057"
       y2="73.493118"
       gradientUnits="userSpaceOnUse"
       spreadMethod="reflect"
       gradientTransform="matrix(1.5265197,0,0,1.4410118,-74.69858,-42.677655)" />
    <linearGradient
       inkscape:collect="always"
       id="linearGradient12000">
      <stop
         style="stop-color:#806600;stop-opacity:1"
         offset="0"
         id="stop11996" />
      <stop
         style="stop-color:#eded00;stop-opacity:0;"
         offset="1"
         id="stop11998" />
    </linearGradient>
  </defs>
  <sodipodi:namedview
     id="base"
     pagecolor="#ffffff"
     bordercolor="#666666"
     borderopacity="1.0"
     inkscape:pageopacity="0.0"
     inkscape:pageshadow="2"
     inkscape:zoom="1"
     inkscape:cx="338.05261"
     inkscape:cy="203.52898"
     inkscape:document-units="mm"
     inkscape:current-layer="layer4"
     inkscape:document-rotation="0"
     showgrid="false"
     inkscape:window-width="1920"
     inkscape:window-height="1177"
     inkscape:window-x="3832"
     inkscape:window-y="-8"
     inkscape:window-maximized="1" />
  <metadata
     id="metadata1455">
    <rdf:RDF>
      <cc:Work
         rdf:about="">
        <dc:format>image/svg+xml</dc:format>
        <dc:type
           rdf:resource="http://purl.org/dc/dcmitype/StillImage" />
        <dc:title />
      </cc:Work>
    </rdf:RDF>
  </metadata>
  <g
     inkscape:groupmode="layer"
     id="layer2"
     inkscape:label="spód"
     sodipodi:insensitive="true">
    <rect
       style="fill:#646464;fill-opacity:1;fill-rule:evenodd;stroke:#806600;stroke-width:0;stroke-miterlimit:4;stroke-dasharray:none"
       id="rect2024"
       width="210"
       height="148"
       x="5.4839614e-07"
       y="5.4839614e-07"
       inkscape:label="tło" />
    <circle
       style="fill:#ffffff;fill-opacity:1;fill-rule:evenodd;stroke:#464646;stroke-width:0;stroke-miterlimit:4;stroke-dasharray:none"
       id="path3082"
       cx="54.75"
       cy="69.75"
       r="39.75" />
  </g>
  <g
     inkscape:groupmode="layer"
     id="layer3"
     inkscape:label="logo"
     sodipodi:insensitive="true">
    <circle
       style="fill:#808080;fill-opacity:0;stroke:url(#linearGradient11738);stroke-width:5.00001;stroke-miterlimit:4;stroke-dasharray:none;stroke-opacity:1"
       id="path7295"
       cx="55"
       cy="70"
       inkscape:label="path7295"
       r="37.499996" />
    <ellipse
       style="display:inline;fill:#808080;fill-opacity:1;stroke:#806600;stroke-width:0;stroke-miterlimit:4;stroke-dasharray:none;stroke-opacity:1"
       id="path9271"
       cx="54.999603"
       cy="69.999771"
       inkscape:label="szare koło"
       rx="35.565414"
       ry="35.565563" />
    <path
       style="fill:#ffffff;fill-opacity:1;stroke-width:0.233798"
       d="m 53.654024,73.274533 c -0.637492,-0.277664 -1.473699,-1.194017 -1.65722,-1.815849 -0.06755,-0.228962 -0.372217,-0.938197 -0.676909,-1.576087 -0.655262,-1.370645 -0.81132,-2.291923 -0.549286,-3.241677 0.168993,-0.612029 0.138291,-0.772764 -0.262363,-1.362773 -0.249441,-0.367901 -0.50631,-0.882627 -0.570605,-1.143846 -0.06426,-0.261204 -0.304363,-0.724109 -0.533452,-1.028654 -1.032653,-1.373329 -1.667554,-5.050074 -1.437825,-8.32565 l 0.117932,-1.680946 -0.486918,-0.122186 C 47.12531,52.85839 46.94179,52.43405 47.273942,52.22886 c 0.08982,-0.0555 0.217772,-0.463766 0.28401,-0.90725 0.08787,-0.584799 0.349931,-1.074467 0.95414,-1.782265 0.458168,-0.536776 0.99872,-1.30065 1.200987,-1.6975 l 0.368348,-0.721559 -0.453971,-1.143806 c -1.045576,-2.633565 -1.065927,-3.978006 -0.09112,-6.000128 0.921832,-1.912188 2.768069,-2.939681 2.8818,-1.603813 0.02583,0.304553 0.209696,1.301258 0.408084,2.214909 0.198708,0.913645 0.410018,1.975274 0.470125,2.35917 l 0.108886,0.697985 0.526342,-0.374982 c 0.672061,-0.478441 1.559634,-0.478441 2.231377,0 l 0.526661,0.374982 0.108896,-0.697985 c 0.05973,-0.383896 0.271079,-1.445525 0.469796,-2.35917 0.198707,-0.913651 0.382237,-1.910356 0.408083,-2.214909 0.113732,-1.335868 1.959969,-0.308375 2.881791,1.603813 0.974819,2.022122 0.954459,3.366563 -0.09079,6.000128 l -0.453972,1.143806 0.372865,0.731309 c 0.205177,0.402219 0.705027,1.114587 1.110528,1.583042 0.40937,0.473319 0.825211,1.198335 0.935394,1.631825 0.108885,0.429052 0.29467,0.972372 0.41261,1.207382 0.172212,0.343189 0.161553,0.46071 -0.05397,0.597043 -0.147655,0.09336 -0.362525,0.171015 -0.477872,0.17257 -0.147984,0.0024 -0.208728,0.885224 -0.205497,3.002176 0.0035,2.147371 -0.08139,3.354374 -0.296287,4.249173 -0.293064,1.21924 -0.851714,2.530611 -1.315697,3.087707 -0.126654,0.152273 -0.281099,0.490584 -0.34282,0.751788 -0.06203,0.261219 -0.316639,0.775945 -0.566407,1.143846 -0.400327,0.590009 -0.431346,0.750744 -0.262363,1.362773 0.261077,0.945554 0.107279,1.866287 -0.541849,3.241677 -0.301132,0.63789 -0.647503,1.419977 -0.770288,1.737983 -0.269794,0.700701 -1.026191,1.451091 -1.730561,1.71726 -0.702435,0.26542 -1.941233,0.23557 -2.627514,-0.06331 z m 2.614264,-0.593412 c 0.347019,-0.164612 0.681105,-0.380556 0.74217,-0.479847 0.0695,-0.112429 -0.01935,-0.110099 -0.237156,0.0063 -0.575452,0.30798 -3.041411,0.236785 -3.571632,-0.10312 -0.441358,-0.282843 -0.449444,-0.281011 -0.184817,0.0416 0.659787,0.804034 2.163202,1.051572 3.251435,0.535236 z m -1.442352,-1.029633 c 0.172214,-0.17227 0.27076,-0.17227 0.442974,0 0.593877,0.59402 1.747371,-0.0047 2.090512,-1.085756 0.06168,-0.194659 0.215837,-0.353935 0.342812,-0.353935 0.126664,0 0.430059,-0.352988 0.674325,-0.784448 0.541209,-0.956812 0.597107,-2.510597 0.122138,-3.405476 -0.222948,-0.419792 -0.313097,-1.033936 -0.31212,-2.122613 0.0035,-2.313514 0.303076,-3.744916 1.198724,-5.702403 0.445565,-0.974063 0.910196,-2.166793 1.032005,-2.650516 0.2181,-0.866536 0.213254,-0.885839 -0.329242,-1.310297 -0.767059,-0.600335 -0.794529,-1.507861 -0.0695,-2.284233 0.543143,-0.581254 1.072068,-0.704048 1.665297,-0.38657 0.62133,0.332657 0.118251,-1.034742 -0.712774,-1.936236 -0.41649,-0.451829 -0.940568,-1.198651 -1.164483,-1.659598 -0.365116,-0.751337 -0.38159,-0.899725 -0.160586,-1.433675 1.440735,-3.48121 1.354793,-5.546981 -0.303725,-7.298969 -0.449764,-0.475316 -0.772222,-0.718915 -0.716644,-0.541324 0.249112,0.793156 0.333439,4.161053 0.128589,5.143941 -0.212277,1.018984 -0.624239,1.830479 -0.826177,1.628312 -0.05653,-0.05653 0.02912,-0.748164 0.189662,-1.537057 0.212599,-1.041932 0.255254,-1.821715 0.15638,-2.850211 l -0.136348,-1.415857 -0.238133,0.676994 c -0.131181,0.372344 -0.342491,1.472872 -0.469796,2.445632 -0.131829,1.00857 -0.316966,1.765401 -0.430379,1.761122 -0.109214,-0.004 -0.486277,-0.2533 -0.837823,-0.553724 -0.80841,-0.691054 -1.420375,-0.691054 -2.228794,0 -0.351536,0.300424 -0.72828,0.549596 -0.837814,0.553724 -0.113412,0.004 -0.29823,-0.752552 -0.430059,-1.761122 -0.127304,-0.97276 -0.338935,-2.073288 -0.470115,-2.445632 l -0.238458,-0.676994 -0.139258,1.266261 c -0.126015,1.143727 0.0339,2.837169 0.390307,4.132569 0.18999,0.69084 -0.287242,0.480755 -0.629088,-0.276867 -0.241034,-0.534778 -0.310505,-1.21673 -0.30501,-2.999342 0.0035,-1.26896 0.06621,-2.556378 0.138931,-2.860924 0.127951,-0.536254 0.106631,-0.526457 -0.673031,0.310499 -1.652367,1.773936 -1.733471,3.812359 -0.290473,7.298969 0.221004,0.53395 0.204203,0.682338 -0.160586,1.433675 -0.223914,0.460947 -0.747994,1.207769 -1.164473,1.659598 -0.831034,0.901494 -1.334441,2.268893 -0.712775,1.936236 0.59322,-0.317478 1.122146,-0.194684 1.66497,0.38657 0.725378,0.776372 0.697588,1.683898 -0.0695,2.284233 -0.542177,0.424458 -0.547022,0.443761 -0.328921,1.310297 0.121809,0.483723 0.586119,1.676453 1.032004,2.650516 0.892098,1.950026 1.19647,3.389323 1.198725,5.669774 0,1.127464 -0.09532,1.718121 -0.38902,2.381733 -0.293703,0.664362 -0.362524,1.085504 -0.277549,1.704123 0.129566,0.945524 0.806156,2.25931 1.163515,2.25931 0.133436,0 0.24265,0.09599 0.24265,0.213306 0,0.117307 0.211958,0.491074 0.470764,0.830585 0.497265,0.651998 1.271432,0.831484 1.707305,0.3958 z m -2.327668,-1.998493 c -0.472707,-0.507305 -0.861406,-1.826412 -0.611646,-2.076034 0.130215,-0.130215 0.250736,-0.036 0.383205,0.299572 0.106303,0.269232 0.280461,0.709803 0.386764,0.979036 0.138611,0.350216 0.25008,0.432849 0.392578,0.290366 0.298549,-0.298451 0.03231,-1.07063 -0.588383,-1.705402 -0.303076,-0.310103 -0.551221,-0.618707 -0.551221,-0.685781 0,-0.06711 0.211639,-0.342937 0.470444,-0.61299 0.444917,-0.46446 0.476257,-0.629838 0.577714,-3.055599 0.119555,-2.866095 -0.172534,-5.438209 -0.96383,-8.48322 -0.533444,-2.053567 -0.52052,-1.925808 -0.196773,-1.925808 0.314065,0 0.940249,2.214255 1.43557,5.075827 0.26398,1.525167 0.341207,2.760353 0.310186,4.964424 -0.03977,2.811946 -0.06009,2.956378 -0.492092,3.469636 l -0.450739,0.535552 0.389667,0.414637 c 0.214222,0.228053 0.517297,0.74319 0.673038,1.144745 l 0.283683,0.730101 -0.08822,-0.718622 c -0.04846,-0.395247 -0.257838,-0.898952 -0.46463,-1.119348 -0.441038,-0.469347 -0.488213,-0.838368 -0.10759,-0.838368 0.326978,0 1.207448,1.450064 1.207448,1.988387 0,0.212888 -0.08432,0.609146 -0.187399,0.880581 -0.141203,0.371303 -0.245891,0.445166 -0.42295,0.298262 -0.173182,-0.143589 -0.294671,-0.100065 -0.460104,0.164509 -0.284979,0.456605 -0.488861,0.453416 -0.924734,-0.01445 z m 4.173258,0.01445 c -0.165114,-0.264566 -0.286924,-0.308098 -0.459785,-0.164501 -0.17706,0.146896 -0.281747,0.07302 -0.422951,-0.298262 -0.103392,-0.271435 -0.187718,-0.667693 -0.187718,-0.880573 0,-0.541844 0.881428,-1.988396 1.211646,-1.988396 0.236199,0 0.238782,-0.0566 0.01616,-0.415284 -0.433281,-0.704767 -0.401293,-5.678459 0.05361,-8.318387 0.481424,-2.792998 1.096619,-4.924904 1.421671,-4.924904 0.314056,0 0.327307,-0.123797 -0.205177,1.925807 -0.79129,3.045005 -1.083376,5.617117 -0.963832,8.483213 0.101458,2.425769 0.132798,2.591146 0.577724,3.055607 0.258804,0.270053 0.470444,0.545901 0.470444,0.612983 0,0.06711 -0.248154,0.375684 -0.551221,0.685787 -0.620371,0.634772 -0.886933,1.406952 -0.588383,1.705403 0.142489,0.142476 0.253967,0.05984 0.392578,-0.290375 0.106304,-0.269232 0.280452,-0.709803 0.386755,-0.979035 0.132478,-0.33558 0.252999,-0.429779 0.383206,-0.299564 0.394512,0.394402 -0.558651,2.450258 -1.136045,2.450258 -0.09661,0 -0.276901,-0.161889 -0.400656,-0.359761 z m 0.441038,-2.538363 c 0.21842,-0.232514 0.342821,-0.477297 0.275934,-0.543959 -0.124392,-0.124571 -0.858495,0.699469 -1.082408,1.214936 -0.06878,0.159015 -0.125369,0.496765 -0.125369,0.750557 0,0.368571 0.05397,0.3145 0.267537,-0.268665 0.147007,-0.401555 0.445885,-0.920347 0.664306,-1.152869 z M 50.617461,52.031114 c 0,-0.152282 0.08592,-0.27686 0.190958,-0.27686 0.105008,0 0.362197,-0.290705 0.571894,-0.646013 0.209704,-0.355309 0.455905,-0.646015 0.547351,-0.646015 0.331824,0 0.155411,0.72302 -0.311483,1.277865 -0.508893,0.604987 -0.99872,0.747683 -0.99872,0.291023 z m 7.860875,-0.291023 c -0.466884,-0.554845 -0.642978,-1.277865 -0.311473,-1.277865 0.09144,0 0.337976,0.290706 0.547343,0.646015 0.209695,0.355308 0.467212,0.646013 0.572229,0.646013 0.104679,0 0.190631,0.124578 0.190631,0.27686 0,0.45666 -0.489509,0.313964 -0.99873,-0.291023 z m -4.777138,-0.49041 c -0.04357,-0.07776 -0.137642,-0.39062 -0.208727,-0.695174 -0.07145,-0.304546 -0.383205,-0.872236 -0.69307,-1.261531 -0.374801,-0.471203 -0.501785,-0.769409 -0.378999,-0.892116 0.35412,-0.354187 1.704067,1.556682 1.704067,2.412269 0,0.3835 -0.286594,0.679275 -0.423271,0.436552 z m 2.387119,0.0071 c -0.214871,-0.214878 -0.122786,-0.800293 0.234892,-1.494322 0.494684,-0.959623 1.121507,-1.591341 1.350916,-1.361858 0.122785,0.122707 -0.0062,0.42179 -0.386437,0.894737 -0.314063,0.390724 -0.625216,0.980915 -0.691127,1.311513 -0.12472,0.623143 -0.304692,0.853439 -0.508244,0.64993 z m -4.90413,10.309049 c -0.140874,-1.151222 -0.354767,-1.881505 -0.815199,-2.77958 -0.611637,-1.193772 -1.347357,-3.214606 -1.466263,-4.028115 -0.03293,-0.225796 -0.126656,-0.474967 -0.208399,-0.553726 -0.08139,-0.07879 -0.10792,1.185752 -0.05815,2.810013 0.09823,3.225776 0.343789,4.376672 1.239765,5.814136 0.284659,0.456811 0.579977,1.03823 0.656228,1.292021 0.07623,0.253799 0.272055,0.639375 0.435225,0.85685 0.284012,0.379158 0.29855,0.349269 0.352184,-0.72733 0.02912,-0.617507 -0.02911,-1.825417 -0.135379,-2.68424 z m 8.37947,2.55472 c 0.07562,-0.253791 0.370601,-0.835203 0.65526,-1.292021 0.895977,-1.437464 1.141219,-2.58836 1.239767,-5.814136 0.04944,-1.624261 0.02262,-2.888761 -0.05849,-2.810013 -0.08139,0.07879 -0.175444,0.32793 -0.208408,0.553726 -0.118578,0.812426 -0.853968,2.833656 -1.463998,4.023725 -0.675942,1.319155 -0.973195,2.927161 -0.983215,5.317466 l -0.0062,1.363074 0.343787,-0.440184 c 0.189016,-0.242107 0.405502,-0.647838 0.481104,-0.901637 z M 49.797733,53.678601 c 0.345725,-0.280436 0.342175,-0.286964 -0.103071,-0.187097 -0.253639,0.05692 -0.528605,0.104597 -0.610671,0.105986 -0.08209,0.0016 -0.09823,0.08559 -0.03523,0.187097 0.158324,0.256238 0.332801,0.231543 0.748962,-0.105986 z m 11.24834,0.105986 c 0.06266,-0.10151 0.04686,-0.185707 -0.03523,-0.187097 -0.08209,-0.0016 -0.357031,-0.04903 -0.610998,-0.105986 -0.445237,-0.09987 -0.448797,-0.09334 -0.103065,0.187097 0.416161,0.337529 0.590957,0.362224 0.749281,0.105986 z M 49.672694,52.37683 c -0.50599,-0.538607 -1.085639,-0.580244 -1.085639,-0.078 0,0.453424 0.453641,0.715472 1.042983,0.602776 l 0.453972,-0.08679 z m 11.834777,-0.07532 c 0,-0.507905 -0.57901,-0.463624 -1.093068,0.0836 l -0.4194,0.446255 0.433289,0.07113 c 0.599692,0.09844 1.079179,-0.168606 1.079179,-0.600975 z"
       id="path866"
       inkscape:transform-center-x="63.102507"
       inkscape:transform-center-y="-1.504342" />
    <text
       xml:space="preserve"
       style="font-style:normal;font-variant:normal;font-weight:normal;font-stretch:normal;font-size:10.0195px;line-height:1.25;font-family:'Arial Black';-inkscape-font-specification:'Arial Black, Normal';font-variant-ligatures:normal;font-variant-caps:normal;font-variant-numeric:normal;font-variant-east-asian:normal;letter-spacing:0px;word-spacing:0px;fill:#ffffff;fill-opacity:1;stroke:none;stroke-width:0.317288"
       x="28.01265"
       y="79.192978"
       id="text20030"
       transform="scale(0.92459449,1.0815552)"><tspan
         sodipodi:role="line"
         id="tspan20028"
         style="font-style:normal;font-variant:normal;font-weight:normal;font-stretch:normal;font-size:10.0195px;font-family:'Arial Black';-inkscape-font-specification:'Arial Black, Normal';font-variant-ligatures:normal;font-variant-caps:normal;font-variant-numeric:normal;font-variant-east-asian:normal;fill:#ffffff;stroke-width:0.317288"
         x="28.01265"
         y="79.192978">LINY LU LU</tspan></text>
    <text
       xml:space="preserve"
       style="font-style:normal;font-variant:normal;font-weight:normal;font-stretch:normal;font-size:3.84728px;line-height:1.25;font-family:Arial;-inkscape-font-specification:'Arial, Normal';font-variant-ligatures:normal;font-variant-caps:normal;font-variant-numeric:normal;font-variant-east-asian:normal;letter-spacing:0px;word-spacing:0px;fill:#ffffff;fill-opacity:1;stroke:none;stroke-width:0.121832"
       x="39.642212"
       y="84.496368"
       id="text44282"
       transform="scale(0.90243227,1.1081164)"><tspan
         sodipodi:role="line"
         id="tspan44280"
         style="font-style:normal;font-variant:normal;font-weight:normal;font-stretch:normal;font-size:3.84728px;font-family:Arial;-inkscape-font-specification:'Arial, Normal';font-variant-ligatures:normal;font-variant-caps:normal;font-variant-numeric:normal;font-variant-east-asian:normal;fill:#ffffff;stroke-width:0.121832"
         x="39.642212"
         y="84.496368">HALTERY WODZE LINY</tspan></text>
    <text
       xml:space="preserve"
       id="text2097"
       style="font-size:3.52778px;line-height:1.25;font-family:Arial;-inkscape-font-specification:'Arial, Normal';white-space:pre;shape-inside:url(#rect2099);" />
    <text
       xml:space="preserve"
       style="font-size:5.62334px;line-height:1.25;font-family:Arial;-inkscape-font-specification:'Arial, Normal';text-align:center;text-anchor:middle;fill:#ffffff;fill-opacity:1;stroke-width:0.210875"
       x="55.470734"
       y="124.75229"
       id="text2117"
       transform="scale(0.99349056,1.0065521)"><tspan
         sodipodi:role="line"
         id="tspan2115"
         x="55.470734"
         y="124.75229"
         style="font-size:5.62334px;text-align:center;text-anchor:middle;fill:#ffffff;fill-opacity:1;stroke-width:0.210875">znajdź nas na </tspan><tspan
         sodipodi:role="line"
         x="55.470734"
         y="131.78146"
         style="font-size:5.62334px;text-align:center;text-anchor:middle;fill:#ffffff;fill-opacity:1;stroke-width:0.210875"
         id="tspan2119">facebook.com/haltery.wodze.liny</tspan></text>
    <text
       xml:space="preserve"
       style="font-size:14.2523px;line-height:1.25;font-family:Arial;-inkscape-font-specification:'Arial, Normal';fill:#ece9a8;fill-opacity:1;stroke-width:0;stroke-miterlimit:4;stroke-dasharray:none"
       x="28.657715"
       y="20.483507"
       id="text3039"
       transform="scale(1.0100471,0.99005284)"><tspan
         sodipodi:role="line"
         id="tspan3037"
         x="28.657715"
         y="20.483507"
         style="font-size:14.2523px;fill:#ece9a8;fill-opacity:1;stroke-width:0;stroke-miterlimit:4;stroke-dasharray:none">BON PODARUNKOWY</tspan></text>
  </g>
  <g
     inkscape:groupmode="layer"
     id="layer4"
     inkscape:label="dane">
    <rect
       style="fill:#ffffff;fill-opacity:1;fill-rule:evenodd;stroke:#464646;stroke-width:0.51;stroke-linejoin:miter;stroke-miterlimit:4;stroke-dasharray:none;stroke-opacity:1"
       id="rect2423-3"
       width="84.489998"
       height="17.639999"
       x="110.25499"
       y="80.254997"
       ry="3" />
    <rect
       style="fill:#ffffff;fill-opacity:1;fill-rule:evenodd;stroke:#464646;stroke-width:0.51;stroke-linejoin:miter;stroke-miterlimit:4;stroke-dasharray:none;stroke-opacity:1"
       id="rect2423"
       width="84.489998"
       height="17.639999"
       x="110.25499"
       y="45.255001"
       ry="3" />
    <text
       xml:space="preserve"
       style="font-size:8.46666667px;line-height:1.25;font-family:Arial;-inkscape-font-specification:'Arial, Normal';fill:#ffffff;fill-opacity:1;stroke-width:0.264583;"
       x="119.75884"
       y="42.070713"
       id="text3043"><tspan
         sodipodi:role="line"
         id="tspan3041"
         x="119.75884"
         y="42.070713"
         style="fill:#ffffff;fill-opacity:1;stroke-width:0.264583;font-size:8.46666667px;">dla</tspan></text>
    <text
       xml:space="preserve"
       style="font-size:8.46666667px;line-height:1.25;font-family:Arial;-inkscape-font-specification:'Arial, Normal';fill:#ffffff;fill-opacity:1;stroke-width:0.264583;"
       x="119.97106"
       y="77.109299"
       id="text3047"><tspan
         sodipodi:role="line"
         id="tspan3045"
         x="119.97106"
         y="77.109299"
         style="fill:#ffffff;fill-opacity:1;stroke-width:0.264583;font-size:8.46666667px;">wartość</tspan></text>
    <text
       xml:space="preserve"
       style="font-size:8.46666667px;line-height:1.25;font-family:Arial;-inkscape-font-specification:'Arial, Normal';fill:#ffffff;fill-opacity:1;stroke-width:0.264583;"
       x="119.66199"
       y="112.10932"
       id="text3051"><tspan
         sodipodi:role="line"
         id="tspan3049"
         x="119.66199"
         y="112.10932"
         style="fill:#ffffff;fill-opacity:1;stroke-width:0.264583;font-size:8.46666667px;">data ważności</tspan></text>
    <rect
       style="fill:#ffffff;fill-opacity:1;fill-rule:evenodd;stroke:#464646;stroke-width:0.51;stroke-linejoin:miter;stroke-miterlimit:4;stroke-dasharray:none;stroke-opacity:1"
       id="rect2423-8"
       width="84.489998"
       height="17.639999"
       x="110.25499"
       y="115.255"
       ry="3" />
  </g>
</svg>
